<svg version="1.1" xmlns="http://www.w3.org/2000/svg" style="display: block;" viewBox="0 0 2048 2048" width="1024" height="1024" preserveAspectRatio="none">
<defs>
	<linearGradient id="Gradient1" gradientUnits="userSpaceOnUse" x1="1018.83" y1="900.313" x2="1014.98" y2="895.669">
		<stop class="stop0" offset="0" stop-opacity="0" stop-color="rgb(255,255,255)"/>
		<stop class="stop1" offset="1" stop-opacity="0.0588235" stop-color="rgb(249,246,250)"/>
	</linearGradient>
</defs>
<path transform="translate(0,0)" fill="rgb(137,95,158)" d="M 1022.83 271.38 C 1025.21 272.383 1027.7 274.707 1029.15 276.791 C 1049.13 305.485 1069.06 334.474 1089.1 363.103 C 1133.5 425.367 1177.22 488.106 1220.26 551.31 C 1236.18 547.655 1254.15 544.707 1270.4 541.569 L 1404.43 516.345 C 1436.8 509.897 1469.23 503.748 1501.72 497.899 C 1514.12 495.573 1544.11 489.225 1555.69 489.319 C 1556.24 501.817 1550.85 526.71 1548.54 539.982 C 1542.69 573.456 1536.63 606.893 1530.37 640.292 L 1507.72 764.608 C 1504.01 784.549 1500.17 807.843 1495.57 827.383 L 1598.71 893.736 C 1665.14 937.555 1732.33 980.214 1800.25 1021.69 C 1801.43 1024.67 1801.44 1023.22 1800.23 1026.19 C 1791.61 1030.76 1779.81 1038.43 1771.05 1043.7 C 1740.12 1062.68 1709.44 1082.08 1679.04 1101.89 L 1496.34 1219.68 C 1499.06 1240.91 1505.36 1269.33 1509.29 1291.05 L 1538.81 1455.28 C 1544.58 1487.09 1552.97 1527.78 1556.75 1559.57 L 1367.3 1523.94 C 1320.6 1515.29 1267.37 1505.9 1221.33 1495.24 C 1211.11 1511.06 1198.48 1528.43 1187.63 1544.16 C 1155.67 1590.43 1123.37 1636.46 1090.74 1682.25 C 1081.75 1695.11 1030.6 1770.94 1023.96 1776.18 C 1019.41 1772.57 985.131 1722.1 978.729 1713 C 927.421 1641.03 876.952 1568.47 827.334 1495.33 C 814.448 1498.81 793.153 1502.37 779.575 1505.05 C 742.37 1512.3 705.127 1519.36 667.85 1526.23 C 629.405 1533.76 590.907 1541.01 552.357 1547.98 C 540.457 1550.25 502.084 1558.47 491.743 1558.25 C 491.067 1547.35 497.22 1516.94 499.472 1504.41 L 515.985 1414.06 L 540.469 1279.38 C 543.999 1260.33 547.269 1239.3 551.464 1220.61 C 537.141 1209.72 520.848 1199.92 505.631 1190.17 L 450.596 1154.57 L 308.642 1063.24 C 299.382 1057.34 251.464 1029.69 247.443 1023.97 C 248.102 1021.14 249.604 1020.45 252.779 1018.52 C 272.296 1006.66 291.817 994.819 311.101 982.595 L 473.016 878.381 C 498.322 861.994 527.365 844.593 551.772 827.545 L 513.216 616.533 C 506.502 580.481 494.538 524.123 491.163 488.511 C 501.371 489.076 519.447 492.922 530.066 494.888 L 599.499 508.037 L 826.697 551.48 C 831.496 545.462 838.727 534.188 843.365 527.445 L 876.532 479.44 L 975.988 337.831 C 984.829 325.297 993.551 312.679 1002.15 299.979 C 1007.58 291.978 1016.55 278.287 1022.83 271.38 z M 830.434 560.344 C 793.005 554.751 751.013 545.399 713.327 538.35 L 500.313 498.031 C 512.313 574.781 528.373 655.474 542.423 732.048 L 554.245 795.99 C 556.164 806.523 559.382 821.886 560.301 832.199 C 538.955 846.821 515.284 861.656 493.29 875.453 C 416.201 923.812 339.857 976.635 261.843 1023.26 C 279.209 1035.99 302.287 1048.93 320.955 1060.79 L 476.162 1160.8 C 485.135 1166.61 556.658 1211.51 559.643 1216.88 C 559.248 1227.45 555.177 1246.53 553.177 1257.48 L 538.99 1333.63 L 500.157 1549.76 C 542.774 1539.86 590.524 1532.69 633.77 1524.37 C 681.366 1514.95 729.02 1505.83 776.729 1497 C 781.838 1496.06 828.769 1485.94 830.803 1488.32 C 846.666 1506.87 860.446 1529.55 874.423 1549.75 L 976.663 1695.61 C 990.61 1715.28 1009.6 1744.47 1023.86 1762.03 C 1030.2 1754.42 1036.75 1743.76 1042.49 1735.27 C 1049.83 1724.53 1057.3 1713.89 1064.91 1703.34 C 1101.33 1652.44 1137.35 1601.26 1172.98 1549.8 L 1200.04 1510.93 C 1204.58 1504.3 1211.7 1493.02 1216.78 1487.29 C 1237.91 1489.06 1275.38 1497.72 1297.37 1501.88 L 1478.93 1535.97 C 1499.56 1539.7 1527.31 1546.49 1547.16 1548.83 L 1507.2 1324.9 L 1494.14 1253.44 C 1492.07 1242.11 1488.78 1226.68 1487.43 1215.66 C 1556.84 1170.11 1626.57 1125.04 1696.59 1080.43 L 1754.98 1043.41 C 1764.91 1037.17 1776.61 1030.48 1785.94 1023.76 L 1573.69 887.889 L 1521.63 854.465 C 1511.97 848.273 1494.74 837.695 1486.51 830.294 C 1492.47 807.683 1498.92 765.049 1503.27 740.961 L 1534.18 572.651 C 1538.29 550.008 1542.18 520.214 1546.91 498.575 C 1522.79 503.954 1495.88 507.794 1471.33 512.4 L 1296.7 545.376 C 1274.3 549.647 1237.96 555.274 1217.24 560.656 C 1208.1 550.235 1185.91 515.316 1176.18 501.562 L 1063.44 341.066 L 1038.6 305.784 C 1035.98 301.996 1025.93 287.136 1023.59 284.774 L 883.801 484.198 C 872.586 499.963 861.542 515.85 850.671 531.854 C 845.049 540.055 836.71 553.056 830.434 560.344 z"/>
<path transform="translate(0,0)" fill="rgb(137,95,158)" d="M 1022.27 304.568 C 1027.37 306.287 1040.17 327.408 1044.09 333.315 L 1078.68 385.854 L 1206.33 583.336 C 1231.75 579.734 1271.18 569.79 1297.39 563.92 C 1351.67 551.437 1406.04 539.337 1460.49 527.621 C 1476.89 524.021 1518.67 513.487 1533.27 511.821 C 1532.61 523.797 1529.11 536.852 1526.67 548.726 C 1521.61 573.238 1516.34 597.71 1510.89 622.139 L 1463.55 841.561 C 1514.03 872.433 1564.74 902.945 1615.66 933.094 C 1628.64 940.862 1641.3 949.366 1654.38 957.028 C 1677.81 970.653 1701.16 984.433 1724.42 998.367 C 1735.14 1004.71 1755.54 1016.01 1764.59 1023.31 C 1745.51 1037.64 1703.37 1061.19 1681.32 1074.45 L 1532.48 1164.12 C 1510.3 1177.59 1486.11 1191.16 1464.61 1205.35 C 1465.66 1217.54 1469.89 1234.26 1472.65 1246.68 L 1485 1304 C 1501.26 1380.59 1519.17 1459.63 1533.7 1536.3 C 1494.64 1526.83 1452.79 1518.3 1413.42 1509.76 L 1283.88 1480.55 C 1258.72 1474.78 1232.64 1469.36 1207.78 1462.75 C 1190.38 1486.22 1168.12 1523.57 1151.69 1549.37 C 1122.65 1594.87 1093.14 1640.07 1063.16 1684.96 C 1054.97 1697.1 1046.9 1709.33 1038.98 1721.64 C 1034.82 1728.09 1029.29 1737.76 1024.69 1743.25 C 1015.97 1739.03 861.899 1493.75 841.25 1463.28 C 833.134 1465.48 821.735 1467.51 813.222 1469.43 L 749.172 1483.98 L 514.214 1536.47 C 515.641 1520.32 521.198 1497.69 524.691 1481.39 L 542.698 1397.41 L 572.424 1260.04 C 576.312 1242.42 579.522 1223.64 583.965 1206.41 C 545.85 1178.76 289.504 1033.05 284.223 1023.65 C 287.721 1017.72 551.45 862.902 583.778 841.724 C 568.984 770.713 553.826 699.778 538.303 628.922 C 530.463 592.692 519.869 548.59 514.011 512.472 C 521.682 513.043 529.872 514.625 537.424 516.215 C 638.655 537.527 739.362 562.555 840.609 583.568 C 862.346 552.471 885.616 514.123 906.196 481.809 C 929.253 446.048 952.538 410.433 976.048 374.969 C 985.352 360.845 994.584 346.675 1003.74 332.457 C 1008.9 324.407 1016.63 311.471 1022.27 304.568 z M 843.227 592.187 C 751.011 575.508 657.979 548.647 565.762 531.066 C 551.668 528.379 537.172 524.755 523.245 521.23 C 537.718 580.681 550.678 647.534 563.65 707.814 L 581.209 789.559 C 584.968 806.999 589.8 827.445 592.406 844.922 C 581.04 853.674 563.904 863.546 551.42 871.14 C 530.456 883.953 509.419 896.644 488.309 909.213 L 297.151 1023.39 C 332.157 1045.61 585.04 1192.38 591.549 1202.41 C 591.873 1215.76 575.644 1284.55 572.125 1300.96 L 523.69 1526.01 C 539.085 1521.37 561.174 1517.27 577.233 1513.77 L 667.01 1493.91 L 771.143 1470.18 C 786.62 1466.63 831.136 1455.78 844.115 1456.18 C 850.603 1460.71 889.241 1523.16 895.678 1533.24 C 926.454 1581.76 957.716 1629.97 989.459 1677.87 C 999.358 1692.68 1014.21 1717.21 1023.94 1729.92 C 1063.75 1669.73 1103.18 1609.29 1142.24 1548.6 C 1155.46 1527.47 1168.86 1506.46 1182.44 1485.55 C 1188.18 1476.73 1196.97 1462.48 1203.46 1454.72 C 1214.01 1455.39 1229.98 1459.4 1240.65 1461.81 L 1300.65 1475.48 C 1374.08 1491.78 1450.26 1508.08 1523.32 1525.32 C 1507.86 1448.52 1490.63 1372.6 1474.71 1295.99 C 1469.59 1271.34 1457.75 1224.65 1455.65 1201.56 C 1461.98 1195.81 1509.15 1168.88 1519.03 1162.87 L 1656.29 1079.85 C 1683.95 1063.45 1724.42 1040.87 1750.2 1023.61 L 1551.78 904.785 C 1531.63 892.819 1511.55 880.731 1491.55 868.521 C 1480.99 862.083 1465.11 853.046 1456.09 845.471 C 1455.9 830.623 1466.53 787.612 1469.97 771.497 C 1480.7 720.259 1491.82 669.106 1503.35 618.044 C 1507.71 598.056 1511.96 578.043 1516.08 558.004 C 1518.38 546.948 1521.06 531.686 1524.37 521.194 C 1514.64 524.157 1503.65 526.642 1493.67 528.73 C 1396.73 549.003 1300.55 573.212 1203.46 592.643 C 1183.62 564.8 1162.87 530.662 1144.15 501.532 C 1114.61 455.686 1084.7 410.079 1054.42 364.715 C 1049.36 357.128 1027.95 321.828 1023.47 317.612 L 893.901 516.301 C 883.841 531.716 853.399 582.347 843.227 592.187 z"/>
<path transform="translate(0,0)" fill="rgb(137,95,158)" d="M 1022.63 364.611 C 1028.28 367.427 1041.83 390.551 1046.37 397.517 L 1080.2 448.779 C 1117.79 504.509 1154.55 560.8 1190.46 617.631 C 1226.05 609.578 1263.46 603.179 1299.44 595.999 C 1362.79 583.111 1426.06 569.872 1489.26 556.283 C 1487.74 571.72 1482.08 594.525 1478.76 610.535 L 1458.81 707.941 C 1452.97 737.18 1447.3 766.451 1441.8 795.754 C 1438.53 813.424 1434.06 840.314 1429.46 857.109 C 1448.2 869.607 1469.95 881.899 1489.26 894.002 C 1535.42 923.205 1581.78 952.073 1628.36 980.604 C 1641.25 988.547 1654.2 996.379 1667.22 1004.1 C 1677.7 1010.21 1690.43 1016.83 1699.95 1023.78 C 1683.1 1034.81 1663.56 1045.16 1646.1 1055.58 C 1573.63 1098.85 1502.94 1146.3 1430.57 1189.52 C 1439.42 1253.99 1456.84 1321.92 1468.26 1386.41 C 1474.32 1420.64 1482.27 1457.75 1490.12 1491.47 C 1470.1 1485.76 1435.47 1479.34 1414.06 1474.83 L 1267.37 1444.9 C 1245.91 1440.71 1212.62 1435.53 1191.91 1429.6 C 1174.6 1452.98 1153.15 1488.79 1136.45 1513.97 C 1099.26 1569.17 1062.56 1624.69 1026.36 1680.54 C 1024.81 1681.47 1024.98 1681.21 1023.1 1681.59 C 1016.89 1677.81 874.479 1456.74 856.907 1429.92 C 812.26 1439.61 765.111 1447.81 719.832 1457.24 L 626.956 1476.19 C 616.665 1478.37 565.47 1491.2 559.265 1488.79 C 558.844 1481.48 573.489 1415.78 575.898 1403.5 L 599.969 1280.73 C 605.171 1253 610.931 1217.05 617.658 1190.24 L 436.864 1077.68 C 420.113 1067.18 403.258 1056.85 386.302 1046.69 C 374.126 1039.33 360.013 1031.27 348.725 1022.89 C 358.286 1016.39 377.085 1006.52 388.037 999.954 C 416.068 983.041 443.996 965.959 471.822 948.71 L 566.098 889.533 C 582.198 879.504 601.073 867.275 617.668 858.47 C 597.41 758.88 580.45 656.723 558.314 557.397 C 568.445 558.114 586.288 562.377 596.876 564.555 L 666.79 579.064 C 730.077 592.133 793.438 604.837 856.871 617.176 L 980.739 429.156 C 989.938 415.238 998.987 401.221 1007.88 387.108 C 1011.69 381.106 1018.44 369.395 1022.63 364.611 z M 860.617 626.666 C 764.145 609.321 664.856 586.618 568.68 567.089 C 574.009 589.552 578.475 615.9 583.089 638.869 L 611.021 780.418 C 615.968 806.534 620.551 835.77 626.694 861.544 L 448.164 972.448 C 424.298 987.075 388.526 1010.59 364.305 1022.62 C 374.554 1030.28 386.679 1036.92 397.758 1043.55 C 411.433 1051.83 425.065 1060.17 438.653 1068.59 L 565.228 1147.88 C 575.688 1154.35 619.122 1179.86 626.272 1186.32 C 620.672 1217.84 614.716 1249.29 608.406 1280.67 C 595.807 1347.54 582.407 1414.27 568.209 1480.82 C 628.882 1467.43 689.137 1455.86 749.701 1443.05 C 772.535 1438.21 795.402 1433.52 818.302 1429 C 829.599 1426.71 849.921 1422.09 860.557 1421.62 C 873.076 1436.44 886.193 1460.91 897.387 1478.15 C 909.215 1496.36 1021.09 1666.94 1023.81 1668.42 L 1024.2 1668.22 C 1033.07 1655.3 1041.05 1641.93 1049.74 1628.83 L 1119.87 1523.33 C 1134.83 1501 1149.62 1478.55 1164.24 1455.99 C 1170.85 1445.79 1180.51 1431.71 1186.18 1421.35 C 1199.28 1422.16 1219.53 1426.94 1233.05 1429.63 L 1319.36 1447.04 C 1366.46 1456.58 1413.54 1465.56 1460.37 1476.41 C 1466.67 1477.87 1472.68 1478.69 1478.95 1480.64 C 1464.15 1408.65 1449.87 1336.55 1436.11 1264.35 C 1431.88 1241.52 1423.87 1206.9 1421.45 1185.01 C 1450.71 1168.88 1486.4 1144.69 1515.35 1126.65 C 1571.13 1091.79 1627.22 1057.43 1683.61 1023.56 C 1619.29 985.665 1555.7 946.556 1492.86 906.258 C 1469.05 891.173 1445.01 876.735 1421.18 861.481 C 1423.37 843.054 1428.62 819.271 1432.23 800.672 C 1438.81 766.214 1445.59 731.794 1452.57 697.413 L 1469.24 615.508 C 1472.18 600.78 1475.34 580.931 1479.17 566.868 C 1462.82 571.071 1443.42 574.584 1426.69 578.062 L 1338.82 596.416 C 1304.59 603.476 1270.31 610.316 1236 616.937 C 1221.94 619.69 1200.51 624.733 1186.94 626.705 C 1148.88 566.691 1109.96 507.228 1070.19 448.334 C 1060.23 433.293 1050.35 418.192 1040.57 403.033 C 1036.15 396.209 1028.51 383.679 1023.55 377.743 C 993.29 425.081 962.464 472.053 931.079 518.651 L 860.617 626.666 z"/>
<path transform="translate(0,0)" fill="rgb(137,95,158)" d="M 1023.13 397.481 C 1028.63 399.536 1040.31 421.558 1044.03 427.615 L 1081.27 488.483 L 1178.75 644.395 C 1220.42 635.922 1261.99 627.015 1303.47 617.674 C 1319.87 614.014 1456.54 581.154 1463.3 582.199 C 1464.74 584.717 1463.32 591.359 1462.67 594.325 C 1446.45 668.229 1428.5 741.72 1413.68 815.929 C 1410.14 833.6 1406.58 851.821 1402.34 869.293 C 1484.48 916.496 1564.74 968.001 1647.61 1014.16 C 1650.41 1015.72 1657.86 1020.49 1659.22 1023.05 C 1658.42 1025.48 1657.33 1027.15 1655.07 1028.49 C 1571.63 1078.03 1484.63 1125.45 1403.37 1178.31 C 1416.58 1259.07 1438.47 1340.49 1455.11 1420.7 C 1456.83 1428.98 1465.57 1459.51 1463.02 1465.2 C 1460.16 1465.82 1454.1 1464.52 1451.14 1463.83 C 1393.94 1450.24 1336.53 1437.39 1279.21 1424.27 C 1246.36 1416.74 1211.65 1411.02 1179.23 1402.28 C 1171.31 1416.41 1160.35 1432.93 1151.6 1446.91 L 1096.46 1534.74 C 1081.46 1558.7 1066.59 1582.74 1051.85 1606.85 C 1043.65 1620.35 1034.13 1637.26 1025.41 1650.1 C 1016.64 1644.7 1006.84 1624.53 1001.14 1615.12 L 968.251 1561.54 L 868.799 1402.49 C 842.031 1409.33 813.627 1413.97 786.638 1420.27 C 719.749 1435.89 650.363 1449.97 583.931 1466.97 C 583.908 1453.35 592.655 1420.98 596.075 1405.24 C 605.97 1358.98 616.115 1312.77 626.509 1266.62 C 630.382 1248.59 634.113 1230.53 637.701 1212.44 C 639.78 1202.17 642.146 1188.13 645.465 1178.45 C 599.018 1149.75 552.209 1121.65 505.049 1094.14 C 480.205 1080.01 455.512 1065.62 430.973 1050.96 C 420.379 1044.74 397.234 1031.89 388.745 1024.4 C 389.778 1018.84 416.375 1005.39 422.543 1001.74 C 452.805 983.79 483.174 966.025 513.649 948.444 C 557.687 922.753 601.343 896.415 644.604 869.436 C 641.345 849.507 636.044 826.358 631.901 806.319 C 620.868 753.919 609.435 701.605 597.604 649.38 C 595.667 640.6 582.837 587.861 584.771 582.662 C 593.326 582.307 624.441 590.022 634.058 592.191 L 729.967 614.171 C 775.048 624.424 824.161 633.718 868.505 644.788 C 902.241 589.44 938.052 534.545 972.198 479.22 C 980.877 465.288 989.435 451.282 997.872 437.203 C 1004.2 426.5 1015.18 406.487 1023.13 397.481 z M 1036.05 612.437 C 1052.15 629.417 1068.6 650.436 1083.99 668.264 C 1090.82 676.181 1108.19 695.992 1113.26 704.29 C 1086.5 727.996 1051.91 758.426 1024.02 780.775 C 1014.2 773.935 938.996 709.593 935.527 702.523 C 939.081 695.127 954.7 678.527 960.627 671.41 C 977.158 651.558 995.371 632.031 1011.97 612.305 L 987.308 598.185 C 971.078 614.564 948.985 632.18 931.125 647.018 C 918.591 657.431 897.752 677.203 884.882 685.791 C 841.831 688.928 791.117 694.48 748.556 695.088 C 746.081 703.217 743.04 712.392 740.846 720.5 L 814.071 726.592 C 828.576 727.73 851.146 729.204 864.991 731.627 C 865.027 743.745 857.555 850.752 854.806 855.305 C 847.014 857.081 837.903 857.384 829.833 857.797 C 797.017 859.475 764.182 863.016 731.393 864.823 C 726.445 828.244 723.965 777.935 720.719 740.267 C 712.242 743.138 703.712 745.848 695.133 748.393 C 692.778 778.489 690.625 808.6 688.673 838.725 C 687.699 852.91 685.703 871.267 685.797 884.87 C 679.215 895.917 608.051 980.286 598.819 987.456 C 602.495 995.646 606.749 1003.63 610.875 1011.61 C 620.677 1003.61 701.04 935.882 705.476 935.718 C 714.381 943.885 733.779 967.71 742.364 978.34 C 753.69 992.365 770.144 1010.14 780.606 1023.83 C 755.995 1053.87 729.841 1083.24 704.916 1113.3 C 686.702 1100 667.849 1083.22 650.385 1068.61 C 638.197 1058.41 622.501 1046.15 611.469 1035.25 C 607.343 1043.36 603.097 1051.42 598.733 1059.41 C 623.79 1086.27 647.091 1116.2 671.09 1144.07 C 675.83 1149.57 681.284 1155.87 685.613 1161.62 C 689.498 1207.31 691.36 1253.55 695.044 1299.35 C 705.028 1301.03 711.465 1302.95 720.742 1307.11 C 723.955 1265.63 727.473 1224.18 731.298 1182.75 C 756.509 1183.32 781.533 1185.92 806.675 1187.96 C 822.605 1189.26 839.681 1189.64 855.388 1191.27 C 858.324 1215.38 859.908 1242.17 861.717 1266.51 C 862.723 1280.03 865.219 1303.69 865.059 1316.67 C 844.905 1317.44 822.599 1319.81 802.32 1321.66 C 783.263 1323.4 760.032 1324.44 741.204 1326.9 C 743.285 1334.11 745.665 1343.36 748.614 1350.05 C 758.211 1353.53 776.851 1353.92 787.725 1354.53 C 809.302 1355.61 830.862 1357.01 852.397 1358.74 C 862.765 1359.53 873.397 1359.67 883.579 1361.89 C 883.948 1361.97 884.321 1362.03 884.689 1362.12 C 890.285 1363.47 982.036 1441.46 987.416 1448.68 C 993.922 1444.87 1005.8 1438.65 1011.45 1434.77 C 1002.32 1425.65 936.451 1349.97 935.257 1342.75 C 949.157 1327.58 977.325 1306.98 993.367 1292.12 C 998.691 1287.19 1018.27 1270.19 1023.43 1266.92 C 1032.07 1271.49 1106.16 1335.42 1112.06 1343.05 C 1111.08 1352.32 1046.46 1421.54 1036.76 1435.12 C 1044.26 1439.04 1053.92 1444.46 1061.45 1447.86 C 1085.07 1426.59 1132.46 1384.25 1156.66 1366.22 C 1173.26 1353.85 1272.36 1358.23 1298.79 1351.55 C 1301.59 1343.29 1304.27 1334.99 1306.82 1326.65 L 1245.07 1321.52 C 1226.58 1320.08 1200.63 1318.41 1182.34 1315.72 C 1184.69 1275.79 1188.57 1231.28 1192.14 1191.35 C 1202.63 1189.92 1226.24 1188.83 1238.15 1188.19 C 1262.04 1186.9 1293.61 1182.67 1316.5 1182.32 C 1320.35 1211.11 1320.82 1244.72 1324.22 1274.07 C 1325.34 1283.77 1325.49 1297.72 1327.24 1306.9 C 1335.69 1303.53 1344.02 1300.84 1352.63 1297.98 C 1354.74 1271.39 1356.63 1244.78 1358.29 1218.16 C 1359.28 1201.3 1360.25 1178.87 1362.34 1162.27 C 1384.14 1132.64 1410.25 1104.11 1434.02 1075.96 C 1438.69 1070.43 1443.79 1064.89 1448.82 1059.69 C 1444.66 1051.63 1440.39 1043.62 1436 1035.68 C 1407.27 1060.48 1373.13 1089.17 1343.51 1112.75 C 1333.37 1104.39 1309.21 1073.09 1299.33 1061.95 C 1293.25 1055.08 1271.92 1030.14 1267.73 1023.73 C 1276.67 1012.2 1338.63 937.022 1343.68 935.445 C 1355.23 942.39 1381.65 966.174 1393.17 975.872 C 1405.87 986.573 1424 1000.04 1435.89 1010.73 C 1440.14 1003.22 1444.89 995.2 1448.83 987.581 C 1435.12 973.074 1367.7 898.032 1363.16 885.482 C 1358.94 873.817 1359.39 850.02 1358.52 836.992 C 1356.4 807.524 1354.51 778.039 1352.86 748.542 C 1345.97 747.042 1334.04 743.014 1327.16 740.445 C 1323.64 768.666 1323.07 800.919 1319.59 829.525 C 1318.19 840.933 1318.57 853.039 1316.12 864.518 C 1294.97 863.213 1273.84 861.788 1252.72 860.244 C 1234.35 858.757 1210.68 856.294 1192.41 856.971 C 1191.33 842.335 1181.6 738.336 1183.75 731.996 C 1190.68 729.925 1212.13 728.484 1220.6 727.716 C 1249.39 725.185 1278.19 722.81 1307.01 720.589 C 1304.17 712.294 1301.03 703.704 1298.96 695.219 C 1281.32 694.398 1168.9 688.253 1160.81 684.061 C 1148.02 677.439 1109.12 641.128 1094.86 629.268 C 1087.17 622.876 1066.49 600.812 1059.63 597.808 C 1051.44 603.328 1044.16 607.318 1036.05 612.437 z M 872.247 653.779 L 766.92 631.048 C 761.865 648.855 755.366 669.417 750.964 687.098 C 759.818 685.903 770.338 684.886 779.25 684.938 C 813.354 684.128 847.375 679.226 880.731 677.85 C 891.803 670.805 905.378 658.656 915.692 649.979 C 937.783 631.394 958.537 613.016 981.113 594.979 C 966.419 585.205 945.41 572.565 929.87 563.443 C 913.472 589.013 896.909 614.464 881.087 640.397 C 878.297 644.972 875.422 649.46 872.247 653.779 z M 1067.4 593.214 C 1083.11 609.087 1105.12 626.441 1122.24 641.385 C 1134.08 651.722 1152.57 668.41 1165.02 677.348 C 1198.1 680.281 1241.69 684.661 1274.25 685.157 L 1296.7 686.492 C 1292.65 671.873 1285.57 644.486 1280.5 631.067 C 1247.25 638.555 1208.61 647.499 1175.26 653.694 C 1168.8 643.62 1121.1 565.778 1117.89 563.945 C 1103.62 572.379 1081.89 586.091 1067.4 593.214 z M 631.365 766.707 C 638.942 797.67 644.402 829.547 650.884 860.776 C 651.806 865.218 652.368 869.425 653.722 873.789 C 625.466 890.842 590.631 910.459 563.572 928.361 L 576.4 950.574 C 582.316 960.519 588.323 970.41 594.421 980.244 C 610.615 962.492 626.445 944.411 641.902 926.013 C 653.156 912.863 668.05 895.928 677.94 882.024 C 680.028 838.764 684.475 795.098 686.375 751.795 L 685.887 751.287 C 669.135 756.281 648.226 762.567 631.365 766.707 z M 767.589 1415.88 L 835.182 1401.36 C 845.365 1399.21 862.404 1395.25 872.122 1394.24 C 879.454 1402.62 896.992 1432.55 903.915 1443.34 C 909.24 1451.64 925.159 1476.07 928.902 1483.7 L 946.514 1473.31 C 956.399 1466.95 972.03 1458.76 980.337 1452.85 C 971.392 1443.8 957.064 1432.68 946.882 1424.14 C 925.678 1406.29 904.57 1388.33 883.557 1370.26 C 866.748 1367.96 846.652 1366.88 829.523 1365.65 C 803.496 1363.71 777.453 1361.97 751.399 1360.44 C 752.986 1370.19 763.753 1405.88 767.589 1415.88 z M 563.606 1118.97 C 583.806 1131.73 604.786 1143.56 625.092 1156.1 C 632.387 1160.6 646.999 1168.62 653.376 1173.53 C 649.518 1201.96 638.688 1252.33 631.527 1280.53 C 633.259 1281.01 645.266 1284.21 646.253 1284.67 C 657.965 1287.91 676.029 1292.32 687.031 1296.23 C 683.211 1253.29 681.936 1210 677.968 1166.33 C 663.877 1147.09 645.139 1126.16 629.6 1107.61 C 620.078 1096.24 604.391 1076.67 594.304 1066.59 C 584.6 1084.18 572.997 1101.65 563.606 1118.97 z M 1370.07 882.672 C 1392.88 911.679 1428.03 953.178 1453.28 980.166 C 1459.63 969.191 1466.05 958.263 1472.56 947.383 C 1475.89 941.558 1480.67 933.692 1483.52 927.839 C 1455.03 909.137 1423.58 892.822 1394.5 873.599 C 1396 858.117 1401.11 835.711 1404.41 819.883 C 1407.88 803.283 1411.5 782.559 1415.71 766.472 C 1402.25 762.535 1371.83 755.19 1360.78 750.633 C 1365.74 791.476 1365.48 840.404 1370.07 882.672 z M 1166.08 1369.83 C 1132.8 1395.57 1100.22 1425.91 1068.06 1453.14 C 1081.93 1461.37 1096.08 1469.59 1109.83 1477.95 L 1119.01 1482.91 C 1134.21 1457.85 1150.46 1433.42 1165.63 1408.34 C 1168.65 1403.34 1171.78 1398.44 1175.14 1393.66 C 1210.45 1400.16 1245.1 1408.17 1280.17 1415.77 C 1286.8 1397.75 1290.45 1378.09 1296.85 1360.83 L 1283.22 1361.43 C 1245.8 1364.07 1202.79 1368.35 1166.08 1369.83 z M 1370.49 1165.64 C 1366.71 1197.89 1365.91 1231.05 1363.43 1263.46 C 1362.62 1273.93 1361.76 1285.32 1361.96 1295.77 L 1402.57 1284.42 L 1416.18 1280.39 C 1411.99 1265.26 1408.96 1248.22 1405.79 1232.68 C 1401.83 1213.28 1397.52 1193.34 1394.99 1173.75 C 1409.51 1163.41 1428.28 1152.58 1443.66 1143.36 C 1455.75 1136.1 1471.17 1126.16 1483.54 1119.78 C 1479.54 1111.91 1457.73 1071.6 1452.74 1067.6 C 1424.43 1099.51 1397 1132.2 1370.49 1165.64 z M 406.183 1018.78 C 416.348 1020.51 432.329 1020.1 443.074 1020.12 L 565.341 1019.96 C 562.38 1013.84 531.913 949.293 530.561 948.001 C 506.144 962.539 481.505 976.949 456.753 990.906 C 441.706 999.39 421.67 1012.61 406.183 1018.78 z M 1114.6 556.6 C 1110.58 550.304 1106.62 543.969 1102.73 537.597 C 1081.58 549.129 1045.34 567.94 1023.47 577.036 C 1012.32 571.551 952.109 542.228 945.744 536.708 C 941.857 543.315 937.84 549.846 933.696 556.296 C 963.479 574.754 993.673 592.54 1024.25 609.641 C 1049.71 595.796 1074.55 580.022 1099.61 565.332 L 1114.6 556.6 z M 1205.48 848.662 C 1217.15 850.005 1228.51 850.57 1240.23 851.246 C 1253.41 852.083 1277.93 853.005 1289.99 854.958 C 1290.39 838.934 1292.2 822.545 1293.31 806.471 C 1286.7 803.53 1265.88 791.65 1262.24 790.627 C 1245.63 808.814 1223.76 831.834 1205.48 848.662 z M 1331.59 1086.67 C 1334.21 1084.16 1349.26 1070.79 1351.98 1069.24 C 1357.62 1064.55 1363.83 1059.13 1369.72 1054.9 C 1367.6 1045.78 1365.24 1036.72 1362.64 1027.73 C 1335.83 1027.47 1307.92 1028.3 1281.38 1027.63 C 1296.37 1047.05 1315.5 1067.45 1331.59 1086.67 z M 695.518 701.654 C 686.081 692.462 596.808 599.819 594.162 598.479 C 602.294 637.341 613.768 691.03 623.897 729.19 C 641.976 721.877 657.477 716.027 675.723 709.348 C 682.299 706.725 688.897 704.16 695.518 701.654 z M 701.549 695.604 C 703.654 690.022 707.38 681.061 709.053 675.652 C 715.358 658.767 723.388 639.145 729.095 622.487 C 699.264 615.8 669.471 608.946 639.717 601.926 C 632.085 600.136 606.446 593.334 600.111 592.733 C 634.34 626.61 668.156 660.902 701.549 695.604 z M 1482.96 1019.13 C 1519.09 1020.76 1567.73 1020.19 1604.41 1020.04 L 1640.79 1019.71 L 1561.34 973.948 C 1550.87 967.925 1526.48 954.576 1517.17 947.435 C 1507.1 971.905 1494.22 995.197 1482.96 1019.13 z M 1025.79 630 L 1093.16 710.925 C 1096.72 707.897 1099.45 705.464 1103.37 702.855 C 1097.93 698.247 1093.55 692.608 1089.11 687.005 C 1071.41 664.668 1052.33 643.491 1033.99 621.685 C 1031.08 618.233 1027.03 613.656 1022.29 613.686 C 1016.18 619.081 1000.58 636.934 995.082 643.625 C 980.792 661.019 957.675 685.009 945.068 702.914 L 954.3 710.339 C 963.831 700.407 1018.71 632.311 1023.61 629.868 L 1025.79 630 z M 1020.14 1362.16 C 1020.15 1352.62 1021.03 1283.54 1018.78 1280.86 C 1002.21 1295.19 977.275 1317.92 960.338 1330.49 C 966.183 1337.58 972.08 1344.62 978.029 1351.62 C 983.292 1358.58 986.879 1362.43 992.982 1368.76 C 1002.28 1366.29 1010.67 1364.05 1020.14 1362.16 z M 1438.12 1022.85 C 1450.93 1049.34 1467.22 1073.66 1481.43 1099.38 C 1484.32 1104.61 1487.24 1109.6 1490.6 1114.53 C 1492.79 1113.96 1492.83 1114.01 1494.75 1112.86 C 1499.94 1109.74 1505.15 1106.65 1510.38 1103.6 C 1502.64 1089.5 1495.18 1072.83 1487.93 1058.21 C 1483.75 1049.77 1474.38 1031.3 1471.81 1023.27 C 1484.47 996.547 1497.38 969.942 1510.55 943.466 L 1490.6 931.62 C 1488.75 935.788 1486.66 940.209 1484.33 944.11 C 1468.82 970.085 1454.19 997.28 1438.12 1022.85 z M 736.996 1422.64 C 742.634 1421.21 747.924 1419.88 753.626 1418.7 L 758.305 1417.42 C 758.429 1411.55 733.073 1328.7 729.404 1318.31 C 703.672 1307.86 658.532 1297.18 630.502 1288.52 C 628.664 1295.91 626.853 1303.71 624.774 1311.01 C 647.666 1318.44 683.154 1330.53 705.01 1339.42 C 711.566 1348.17 730.845 1407.31 736.996 1422.64 z M 738.517 857.042 L 749.187 856.178 C 748.136 818.394 741.199 776.192 740.757 740.388 C 777.514 740.491 820.676 748.775 856.085 749.344 L 856.896 738.201 C 834.565 736.829 812.26 735.05 789.994 732.865 C 770.351 730.958 750.159 728.468 730.424 729.115 C 727.178 744.606 735.859 837.546 738.517 857.042 z M 1096.23 1351.96 C 1098.42 1349.45 1100.68 1346.79 1102.95 1344.37 L 1094.32 1336.19 C 1077.7 1354.26 1062.33 1373.99 1046.33 1392.61 C 1041.47 1398.26 1029.81 1413.41 1024.99 1416.95 C 1017.07 1416.28 961.272 1339.25 952.542 1336.71 C 949.629 1338.82 946.92 1340.21 945.491 1343.39 C 946.885 1350.05 1015.29 1429.11 1025.25 1434.09 C 1050.31 1408.06 1072.52 1378.68 1096.23 1351.96 z M 856.54 1308.27 L 856.045 1297.76 C 839.068 1298.5 821.45 1300.81 804.449 1302.43 C 783.25 1304.28 762.029 1305.86 740.791 1307.18 C 741.658 1275.02 746.515 1241.84 748.505 1209.65 C 748.868 1203.78 749.499 1197.28 750.452 1191.49 L 738.069 1190.49 C 737.731 1209.45 724.813 1308.99 731.786 1316.65 C 733.436 1318.46 738.967 1318.44 741.252 1318.44 C 754.484 1318.4 768.067 1316.19 781.275 1315.09 C 803.352 1313.26 825.371 1311.83 847.421 1309.55 C 850.423 1309.24 853.605 1308.97 856.54 1308.27 z M 1049.88 1376.26 C 1043.49 1374.27 1029.89 1369.78 1023.76 1369.21 C 1015.27 1371.2 1006.81 1373.27 998.367 1375.43 C 1005.3 1383.88 1017.29 1398.96 1024.57 1406.33 C 1032.75 1395.62 1040.53 1385.96 1049.88 1376.26 z M 701.584 1350.82 C 678.251 1376.08 654.345 1400.8 629.885 1424.97 C 620.182 1434.71 608.28 1445.68 599.111 1455.39 C 606.424 1453.44 615.885 1451.21 622.925 1448.92 C 651.429 1443.62 680.049 1435.11 708.47 1429.1 C 715.081 1427.7 722.377 1426.07 728.851 1424.22 C 722.833 1408.67 717.068 1393.03 711.558 1377.3 C 709.263 1370.89 704.397 1356.37 701.584 1350.82 z M 565.97 1027.85 C 513.479 1028.06 460.987 1027.96 408.498 1027.55 C 413.147 1032.65 518.267 1092.17 530.379 1099.02 C 535.009 1090.57 538.629 1082.29 543.053 1073.92 C 547.971 1062.71 559.845 1038.46 565.97 1027.85 z M 1297.65 1191.55 C 1297.61 1200.47 1299.42 1215.47 1300.28 1224.79 L 1305.23 1280.62 C 1305.93 1288.56 1307.28 1299.47 1307.19 1307.2 C 1271.03 1304.61 1227.68 1301.98 1191.96 1296.96 C 1191.52 1301.48 1190.51 1304.43 1192.1 1308.18 C 1195.12 1309.88 1198.19 1309.69 1201.72 1309.93 C 1237.15 1310.81 1274.29 1316.95 1310.54 1318.42 C 1313.24 1316.64 1315.77 1315.02 1318.32 1313.01 C 1317.81 1272.46 1311.43 1231.05 1309.93 1190.77 C 1306.31 1191.01 1301.14 1191.53 1297.65 1191.55 z M 933.091 1490.42 C 936.833 1496.32 941.762 1504.57 945.892 1509.91 C 958.104 1503.22 1013.77 1473.53 1023.56 1471.22 C 1035.92 1474.24 1088.97 1502.36 1102.49 1509.55 C 1106.49 1502.86 1110.19 1497.18 1114.57 1490.71 C 1085.2 1473.06 1052.9 1453.44 1023.24 1436.84 C 1013.6 1443.55 1000.26 1450.71 989.771 1456.84 L 933.091 1490.42 z M 1070.27 1351.44 C 1075.44 1345.09 1081.73 1336.93 1087.24 1331.09 C 1070.41 1316.78 1043.36 1294.91 1028.04 1279.8 C 1026.92 1300.69 1027.09 1339.76 1028 1361.61 C 1037.33 1364.15 1046.68 1366.63 1056.05 1369.05 C 1060.59 1362.5 1065.05 1357.48 1070.27 1351.44 z M 1027.89 685.462 C 1027.61 712.815 1027.63 740.171 1027.95 767.524 C 1031.91 763.604 1040.35 755.278 1045.05 752.358 C 1055.98 742.52 1075.24 725.152 1086.8 716.684 C 1082.74 711.397 1058.49 678.961 1054.04 678.089 C 1045.35 680.632 1036.63 683.09 1027.89 685.462 z M 960.311 715.155 C 973.601 727.834 989.299 740.315 1003.23 752.585 C 1010.39 758.296 1013.82 761.161 1020.04 767.779 L 1020.07 685.585 C 1012.36 683.479 1000.57 680.626 993.469 677.709 C 982.903 689.162 970.212 703.095 960.311 715.155 z M 753.464 1249.35 C 752.292 1265.72 749.863 1282.44 749.782 1298.69 C 763.203 1297.67 780.309 1295.37 793.239 1294.83 L 797.085 1294.72 L 797.814 1293.13 C 779.901 1256.4 782.628 1267.43 753.464 1249.35 z M 1318.76 1424.68 C 1350.97 1431.55 1391.49 1440.15 1423.21 1448.7 C 1432 1450.7 1439.81 1452.91 1448.44 1455.39 C 1437.8 1444.24 1425.82 1433.21 1414.84 1422.07 C 1391.56 1398.58 1368.58 1374.81 1345.91 1350.74 C 1337.81 1376.12 1326.9 1400.43 1318.76 1424.68 z M 1243.09 1288.49 L 1257.23 1262.88 C 1243.57 1250.31 1230.91 1236.64 1217.96 1223.37 C 1214.65 1219.97 1202.14 1206.57 1199.23 1204.58 C 1197.99 1228.02 1195.09 1251.55 1193.54 1274.99 C 1193.22 1279.79 1192.89 1285.04 1192.06 1289.76 C 1202.61 1290.13 1234.47 1294.84 1240.87 1292.29 C 1241.61 1291.07 1242.5 1289.76 1243.09 1288.49 z M 1341.06 706.169 C 1330.78 684.447 1320.3 648.795 1310.72 625.207 L 1308.55 625.159 L 1288.06 629.651 C 1298.95 662.545 1307.03 696.527 1318.17 729.675 C 1330.98 732.271 1345.52 737.426 1358.3 741.356 C 1373.49 746.025 1390.83 750.112 1405.65 755.211 L 1417.28 757.881 L 1421.85 736.7 C 1404.72 730.232 1387.54 723.894 1370.31 717.686 C 1362.69 714.91 1347.56 709.837 1341.06 706.169 z M 716.79 960.863 C 706.013 969.3 687.672 983.334 678.313 992.417 C 680.672 1002.59 682.594 1009.95 685.745 1019.97 L 727.75 1020.06 L 766.515 1019.98 C 755.083 1006.18 743.573 992.45 731.984 978.784 C 729.543 975.89 718.973 962.873 716.79 960.863 z M 797.69 752.468 C 782.084 751.587 764.585 750.518 749.069 748.628 C 750.074 764.881 752.554 782.442 753.259 798.245 C 763.196 792.882 772.354 787.889 782.032 782.044 C 786.929 774.448 793.697 760.896 797.69 752.468 z M 1027.89 1480.79 C 1027.1 1529.76 1027.35 1583.09 1028 1632.12 C 1036.5 1616.19 1044.46 1601.46 1054.51 1586.43 C 1068.66 1562.88 1084.04 1540.03 1098.05 1516.91 C 1078.96 1506.8 1043.92 1491.05 1027.89 1480.79 z M 1451.67 1440.15 C 1442.69 1400.4 1431.99 1358.71 1424.09 1319.02 C 1403.37 1327.87 1374.16 1337.44 1352.31 1345.1 C 1382.18 1377.6 1416.81 1409.77 1447.12 1441.98 C 1448.23 1443.59 1452.52 1447.99 1454.07 1449.65 L 1451.67 1440.15 z M 1407.02 1023.67 C 1397.07 1015.29 1386.45 1006.86 1376.74 998.374 C 1375.15 1006.88 1372.19 1015.22 1369.51 1023.47 C 1371.85 1031.81 1374.33 1040.11 1376.96 1048.36 C 1381.3 1044.52 1385.32 1040.86 1389.95 1037.34 L 1407.02 1023.67 z M 784.475 790.275 C 777.329 794.426 760.954 804.312 753.678 807.151 C 755.445 823.218 756.328 839.391 758.228 855.304 C 772.645 854.018 793.535 853.012 807.329 851.173 C 817.647 850.544 832.286 850.08 842.195 848.544 C 828.358 835.743 815.962 822.548 802.891 809.038 C 798.239 804.229 789.343 794.265 784.475 790.275 z M 1594.5 1054.14 C 1608.41 1046.24 1626.34 1036.65 1639.36 1027.95 C 1603.25 1027.29 1567.9 1028.1 1531.84 1027.99 C 1519.42 1027.95 1493.64 1028.6 1482.02 1027.21 C 1490.99 1045.97 1507.42 1082.98 1517.11 1099.52 C 1541.58 1084.32 1571.29 1069.36 1594.5 1054.14 z M 1265.71 1265.03 C 1260.67 1274.51 1255.47 1283.9 1250.1 1293.19 C 1252.88 1295.13 1252.74 1294.49 1256.75 1294.74 C 1270.39 1295.35 1285.35 1298.33 1298.25 1298.05 C 1298.1 1293.18 1295.35 1250.96 1294.11 1249.36 L 1265.71 1265.03 z M 1294.05 798.027 C 1294.75 790.874 1299.28 754.005 1298.39 749.421 C 1294.75 749.008 1294.67 749.089 1291.22 749.568 C 1277.01 750.693 1262.79 751.702 1248.56 752.595 C 1253.4 760.44 1262.91 779.546 1268.93 783.935 C 1275.15 787.144 1288.89 793.817 1294.05 798.027 z M 1020.03 566.64 L 1020.16 421.946 L 1019.67 418.635 C 1017.52 419.549 1016.75 422.255 1015.29 424.888 C 994.014 460.603 972.103 495.938 949.57 530.877 C 970.119 540.432 1000.71 555.386 1020.03 566.64 z M 1256.86 784.64 C 1251.73 774.482 1246.02 763.859 1241.09 753.691 L 1240.28 753.605 C 1226.59 754.786 1206.05 757.116 1192.92 757.041 C 1193.29 777.284 1196.62 823.512 1199.05 843.96 C 1201.06 841.806 1203.16 839.64 1205.06 837.4 C 1222.16 819.653 1239.43 802.065 1256.86 784.64 z M 999.3 670.848 C 1003.56 672.294 1020.66 678.467 1024.33 677.771 C 1033.06 675.85 1041.43 673.179 1049.64 671.352 C 1044.04 665.178 1027.68 643.498 1023.43 640.491 C 1015.92 651.445 1005.24 661.839 999.3 670.848 z M 767.238 1026.99 C 756.806 1028.36 694.108 1028.56 685.787 1026.98 C 683.942 1036.19 680.915 1046.34 678.118 1055.36 C 690.294 1063.89 705.311 1076.81 716.879 1086.63 C 723.799 1077.89 730.939 1069.33 738.292 1060.95 L 767.238 1026.99 z M 1317.85 622.461 C 1325.44 641.684 1332.82 660.989 1339.99 680.374 C 1341.82 685.329 1344.37 691.679 1345.9 696.595 C 1354.13 687.455 1445.35 595.767 1445.87 593.429 L 1444.53 593.044 C 1420.6 599.772 1393.48 605.267 1369 610.988 C 1355.31 614.189 1330.98 620.732 1317.85 622.461 z M 994.295 1588.34 C 1003.2 1602.4 1011.77 1616.65 1020.01 1631.11 C 1020.11 1614.81 1020.86 1483.46 1019.04 1481.22 C 997.811 1492.19 970.569 1505.42 950.449 1517.33 C 964.834 1541.14 979.45 1564.81 994.295 1588.34 z M 625.235 736.67 C 626.948 744.091 628.546 751.158 630.667 758.473 L 645.75 754.136 C 674.167 746.105 701.749 737.059 729.669 728.939 C 737.855 698.858 749.752 659.18 759.354 629.635 L 736.918 624.44 L 718.564 675.049 C 704.53 713.821 706.943 707.422 667.803 721.325 L 625.235 736.67 z M 1319.2 1316.88 C 1314.81 1326.45 1310.49 1342.7 1307.44 1353.25 C 1301.45 1374.71 1295.19 1396.09 1288.65 1417.39 C 1292.59 1418.3 1296.88 1419.2 1300.76 1420.24 C 1304.13 1421.03 1307.32 1421.77 1310.65 1422.7 C 1320.28 1397.4 1330.34 1366.22 1341.14 1341.96 C 1342.89 1338.02 1414.59 1313.6 1422.68 1311.28 L 1417.73 1289.64 L 1416.43 1289.09 L 1355.52 1306.62 C 1344.39 1309.87 1330.29 1314.43 1319.2 1316.88 z M 1346.07 1100.34 C 1356.9 1090.75 1431.19 1031.19 1434.49 1023.27 C 1428.01 1012.73 1376.31 973.483 1364.03 962.71 C 1362.86 961.684 1345 946.327 1343.92 945.667 C 1341.41 948.346 1338.58 951.188 1336.36 954.081 C 1363.45 977.124 1392.81 999.695 1419.34 1022.79 C 1393.87 1046.53 1363.19 1069.14 1336.55 1092.7 C 1338.7 1095.32 1341.65 1099.55 1344.52 1100.95 L 1346.07 1100.34 z M 711.007 1093.28 C 683.457 1069.14 656.074 1047.38 628.229 1024.02 C 634.779 1017.13 647.073 1007.7 654.686 1001.36 L 711.757 954.524 C 709.683 952.055 705.667 946.945 703.592 944.838 C 675.596 971.17 637.864 996.501 611.448 1022.87 C 624.545 1037.5 640.647 1048.95 655.33 1061.99 C 670.573 1075.53 687.181 1087.25 702.445 1100.89 C 705.996 1099.93 708.351 1096.4 711.007 1093.28 z M 1362.35 1019.94 C 1364.73 1010.79 1367.27 1001.69 1369.97 992.628 L 1330.63 960.488 C 1316.86 979.908 1296.06 1000.89 1280.81 1020.06 C 1294.77 1019.94 1308.73 1019.92 1322.69 1020 L 1362.35 1019.94 z M 1306.11 757.754 C 1304.54 790.185 1299.38 822.061 1298.15 855.924 L 1309.07 856.291 C 1310.46 841.394 1321.48 737.019 1316.39 730.028 C 1310.11 728.008 1301.06 729.089 1294.31 729.57 C 1262.15 731.488 1223.33 737.915 1191.26 737.653 L 1191.56 749.772 C 1224.99 746.056 1258.66 744.142 1292.17 741.203 C 1297.23 740.76 1302.32 740.345 1307.39 740.397 C 1307.13 744.894 1306.82 753.709 1306.11 757.754 z M 672.13 1050.31 C 677.122 1027 680.068 1023.01 671.796 999.711 L 670.967 998.953 C 662.288 1005.4 647.906 1018.7 640.597 1023.18 C 647.281 1028.96 654.043 1034.65 660.883 1040.25 C 665.244 1043.76 668.158 1046.48 672.13 1050.31 z M 803.906 1287.84 L 806.739 1293.31 C 818.328 1294.3 842.236 1290.23 855.204 1289.87 C 854.493 1280.23 850.022 1208.3 847.617 1204.92 C 828.802 1224.07 809.739 1244.2 790.472 1262.76 C 795.143 1271.01 799.622 1279.37 803.906 1287.84 z M 1289.75 1192.67 C 1262.28 1193.89 1231.7 1198.01 1204.8 1198.09 L 1236.39 1229.67 C 1245.17 1238.62 1253.85 1248.05 1262.5 1256.85 C 1272.94 1251.52 1283.79 1245.74 1294.4 1240.88 C 1292.08 1227.05 1292.1 1203.52 1289.75 1192.67 z M 593.692 1450.46 C 606.101 1437.68 618.432 1424.83 630.684 1411.91 C 651.221 1391.25 675.548 1366.58 695.07 1345.2 C 673.789 1335.8 642.976 1328.15 623.354 1318.61 C 614.867 1359.15 604.515 1410.92 593.692 1450.46 z M 758.147 1191.84 C 756.841 1207.16 755.711 1226.43 753.432 1241.3 C 763.954 1246 774.354 1250.98 784.62 1256.22 C 794.414 1247.38 803.173 1237.89 812.33 1228.42 C 821.072 1219.87 835.103 1207.01 842.925 1198.33 C 814.943 1196.63 785.548 1193.26 758.147 1191.84 z M 805.786 752.975 C 801.653 765.119 795.283 774.284 790.575 785.196 C 809.267 802 827.015 821.712 845.099 839.452 L 848.107 842.604 L 848.815 842.049 C 851.471 814.744 853.154 785.166 855.332 757.551 C 841.637 756.33 818.664 755.013 805.786 752.975 z M 555.851 932.849 L 537.48 943.993 C 546.899 963.109 569.553 1006.36 576.021 1024.2 C 567.731 1044.17 547.579 1084.49 537.143 1103.57 C 543.247 1107.08 550.319 1110.93 556.237 1114.58 C 561.426 1108.03 570.509 1091.16 575.225 1082.99 C 586.665 1063.5 597.837 1043.86 608.739 1024.06 C 605.387 1016.54 559.09 934.192 555.851 932.849 z M 1452.68 597.816 C 1422.64 630.129 1384.73 670.833 1353.02 701.028 C 1359.67 704.765 1365.98 707.261 1373.24 709.615 C 1390.35 715.58 1407.36 721.816 1424.26 728.323 C 1426.92 713.863 1454.21 600.987 1453.01 598.151 C 1452.95 598.006 1452.79 597.928 1452.68 597.816 z M 1028.11 417.627 C 1027.68 467.381 1027.65 517.137 1028.03 566.892 C 1041.85 558.384 1059.99 550.451 1074.66 542.481 L 1097.77 530.859 L 1048.34 450.196 C 1044.87 444.488 1031.4 420.725 1028.11 417.627 z"/>
<path transform="translate(0,0)" fill="rgb(137,95,158)" d="M 1062.34 604.704 C 1087.09 632.316 1110.08 661.542 1134.46 689.49 C 1139.83 695.639 1145.59 703.098 1151.91 708.165 C 1193.53 707.952 1238.24 700.282 1280.04 698.539 C 1284.43 698.356 1288.64 697.157 1291.67 700.751 L 1291.08 702.59 C 1285.78 707.478 1260.63 707.96 1251.85 708.74 C 1221.55 711.547 1191.21 713.963 1160.85 715.988 C 1161.12 758.227 1169.5 804.37 1171.83 846.846 C 1172.32 855.801 1173.64 864.868 1174.15 873.949 C 1183.7 873.931 1196.67 875.389 1206.39 876.146 C 1227.75 877.681 1249.08 879.523 1270.39 881.673 C 1288.49 883.417 1313.56 884.452 1330.66 886.811 C 1333.01 852.825 1338.11 818.736 1339.96 784.703 C 1340.48 775.188 1340.99 764.522 1345.58 755.991 L 1348.19 756.724 C 1349.68 765.489 1347.83 783.652 1347.16 793.05 C 1345.83 813.109 1344.15 833.143 1342.11 853.142 C 1340.7 866.754 1338.57 880.961 1337.62 894.492 C 1342.26 900.787 1356.9 912.289 1363.11 917.941 C 1388.49 941.034 1415.64 960.048 1440.27 984.004 C 1440.84 986.989 1440.98 985.515 1439.38 988.504 L 1437.1 989.129 C 1434.37 988.353 1431.65 987.218 1429.5 985.295 C 1399.82 958.762 1367.64 934.762 1338.78 907.331 C 1332.3 916.057 1322.4 926.464 1315.07 934.829 C 1290.11 963.349 1266.66 995.702 1241.22 1023.54 C 1274.11 1061.53 1305.81 1102.55 1339.21 1139.85 C 1366.97 1113.53 1398.71 1090.63 1426.88 1064.72 C 1430.16 1061.69 1434.35 1058.25 1438.91 1058.96 L 1439.99 1061.38 C 1439.72 1062.28 1439.45 1063.19 1439.18 1064.1 C 1411.59 1091.53 1363.48 1126.6 1337.62 1152.95 C 1340.93 1175.2 1350.91 1272.34 1347.96 1291.96 L 1345.38 1292.73 C 1339.54 1283.84 1339.91 1256.68 1338.86 1245.18 C 1336.07 1216.9 1333.43 1188.61 1330.94 1160.3 C 1281.28 1164.02 1223.33 1168.56 1174.16 1174.18 C 1173.99 1187.58 1170.4 1213.35 1169.04 1228.29 L 1160.31 1330.95 C 1170.6 1330.97 1286.81 1340.93 1289.26 1342.07 C 1291.74 1344.9 1291.16 1343.33 1291.39 1346.81 L 1290.13 1348.09 C 1279.9 1349.96 1264.8 1347.25 1254.11 1346.69 C 1220.9 1344.93 1185.62 1339.34 1152.39 1338.91 C 1132.23 1356.17 1085 1420.07 1063.11 1440.35 C 1061.78 1441.58 1060.09 1440.81 1058.83 1440.35 C 1056.41 1431.78 1078.29 1410.9 1084.52 1403.64 C 1102.86 1382.06 1121.34 1360.62 1139.97 1339.31 C 1128.3 1327.49 1114.17 1317.41 1101.72 1306.38 C 1076.41 1283.97 1048.64 1263.09 1024.21 1239.78 C 1010.98 1251.88 995.222 1264.38 981.187 1275.83 C 956.438 1296.02 932.346 1318.72 907.69 1338.68 C 926.256 1359.59 944.18 1382.46 962.621 1403.66 C 967.556 1409.33 987.02 1430.34 989.643 1435.41 C 988.867 1439.26 988.94 1438.21 985.959 1441.59 C 982.798 1440.03 976.952 1432.77 974.302 1429.83 C 956.686 1410.27 940.394 1389.23 922.961 1369.46 C 914.908 1360.32 904.007 1345.38 894.955 1337.88 C 859.422 1341.19 823.86 1344.19 788.272 1346.86 C 782.725 1347.29 760.99 1349.63 757.656 1348.99 C 755.885 1345.96 756.464 1347.7 757.326 1343.12 C 759.07 1341.5 762.423 1340.77 764.72 1340.61 C 805.476 1337.69 846.456 1333.8 887.203 1330.91 C 886.856 1314.42 884.482 1292.74 883.018 1276.05 L 873.82 1173.8 C 823.01 1167.82 768.225 1165.95 717.299 1159.56 L 709.349 1242.9 C 708.649 1250.57 706.88 1286.69 703.725 1290.36 C 700.075 1291.14 701.623 1291.47 698.571 1290.45 C 696.744 1285.34 708.298 1169.03 709.189 1151.94 C 695.393 1134.63 610.364 1072.93 607.94 1059.79 L 609.174 1058.47 C 611.713 1058.44 612.666 1057.99 614.8 1059.72 C 625.133 1068.13 635.854 1077.65 645.888 1086.31 C 666.709 1104.15 687.69 1121.8 708.828 1139.27 C 742.382 1101.41 773.55 1061.37 807.306 1023.92 C 773.36 986.53 742.299 945.416 708.606 907.47 C 681.611 933.428 651.055 955.837 623.441 981.128 C 618.873 985.312 614.51 990.439 607.629 988.584 L 606.742 986.734 C 608.418 980.844 626.15 967.639 631.897 962.828 L 676.434 925.173 C 686.056 916.977 699.829 905.608 708.265 896.439 L 709.305 895.297 C 707.131 853.159 700.639 809.969 698.548 767.64 C 698.307 762.766 697.561 758.8 702.004 755.499 L 703.506 756.609 C 708.558 767.943 714.436 865.776 716.964 886.986 C 766.698 882.211 824.769 879.318 873.711 873.065 C 874.215 865.11 874.949 856.674 875.829 848.735 C 880.685 804.96 882.342 759.905 887.748 716.26 C 870.754 714.838 762.757 707.702 755.719 703.351 C 755.309 702.164 754.57 701.345 755.592 700.181 C 759.299 695.956 883.124 707.875 895.846 708.815 C 904.53 700.258 912.504 690.213 920.462 680.906 L 960.295 634.449 C 965.717 628.139 980.465 607.348 988.331 608.199 L 989.12 609.949 C 986.783 617.448 977.336 627.072 971.894 633.109 C 950.17 657.213 930.02 683.645 908.197 707.51 C 915.251 715.574 927.616 725.669 936.029 732.821 L 974.798 765.749 C 988.273 777.073 1010.98 797.7 1024.36 807.327 C 1029.04 802.828 1034.06 798.307 1039.11 794.223 C 1073.36 766.501 1106.26 736.745 1140.03 708.543 C 1134.73 701.337 1124.71 690.367 1118.53 683.162 L 1082.12 640.568 C 1077.15 634.81 1061.21 617.523 1058.91 611.51 C 1059.32 607.284 1059.2 608.594 1062.34 604.704 z M 880.52 880.5 C 851.956 886.26 751.842 889.501 717.677 896.141 C 717.136 896.763 716.595 897.385 716.055 898.007 C 714.701 908.824 804.266 1004.2 816.653 1023.7 L 816.053 1024.57 C 804.938 1040.34 715.557 1141.15 715.28 1148.16 C 717.207 1150.89 717.303 1151.45 721.755 1152.03 C 735.678 1153.84 750.439 1154.92 764.4 1156.12 L 840.158 1162.77 C 853.184 1163.89 867.638 1164.61 880.396 1166.34 C 883.198 1186.05 893.795 1326.67 897.362 1332.19 L 899.435 1332.86 C 910.207 1326.78 931.343 1307.58 941.473 1298.84 C 960.123 1282.65 978.95 1266.66 997.952 1250.88 C 1004.51 1245.36 1017.06 1234.26 1024.11 1230.18 L 1025.15 1230.94 C 1042.24 1243.68 1140.49 1331.4 1149.28 1331.87 L 1151.58 1330.86 C 1153.9 1321.81 1157.67 1270.53 1158.44 1259.28 C 1160.49 1229.42 1165.28 1195.95 1166.58 1166.55 C 1204.43 1161.33 1243.94 1159.74 1282.09 1156.45 C 1295.53 1155.29 1309.89 1154.99 1323.11 1152.52 C 1326.17 1151.95 1329.82 1151.34 1331.99 1148.91 C 1332.7 1148.11 1332.75 1148.09 1332.5 1147.11 C 1330.55 1139.35 1242.65 1037.82 1231.15 1024.14 C 1237.7 1013.28 1250.39 999.536 1258.69 989.641 L 1308.69 930.053 C 1313.69 924.088 1331.74 904.827 1331.32 898.195 C 1325.45 891.374 1249.57 888.852 1236.01 886.973 C 1214.54 883.998 1188.44 883.531 1166.74 880.629 C 1162.57 826.18 1157.27 770.417 1151.49 716.034 C 1151.4 715.266 1148 713.058 1147.06 712.604 C 1133.22 725.231 1034.8 811.436 1023.56 815.853 C 1016.82 813.78 998.354 796.651 992.224 791.38 L 937.286 744.54 C 930.088 738.36 904.43 713.956 897.288 714.537 C 894.771 722.038 893.237 743.778 892.406 752.727 L 884.356 841.815 C 883.677 849.23 881.881 874.493 880.52 880.5 z"/>
<path transform="translate(0,0)" fill="rgb(137,95,158)" d="M 907.692 739.178 C 917.119 742.338 940.902 766.056 950.413 773.334 C 973.462 790.973 999.361 816.792 1022.96 832.762 C 1034.26 827.068 1043.6 818.056 1053.37 810.02 C 1079.86 788.229 1105.74 765.633 1131.99 743.569 C 1134.47 741.484 1136.27 740.747 1139.31 740.904 C 1143.64 748.435 1148.69 836.26 1151.05 852.009 C 1152.45 861.325 1151.87 879.821 1156.25 890.171 C 1166.57 894.572 1181.13 894.04 1192.49 895.44 C 1210.17 897.62 1227.76 899.272 1245.5 900.779 C 1266.14 902.533 1289.11 903.45 1309.38 907.009 C 1302.58 917.785 1290.29 931.318 1281.79 941.527 L 1237.22 995.429 C 1232.23 1001.51 1214.88 1019.54 1218.01 1026.48 C 1225.4 1042.9 1307.36 1129.67 1307.07 1139.71 C 1304.86 1141.27 1302.46 1141.79 1299.77 1142.06 C 1253.65 1146.79 1204.17 1148.72 1158.35 1155.03 C 1152.51 1166.85 1152.52 1186.02 1150.73 1201.97 C 1146.97 1235.36 1144.54 1272.37 1140.61 1306.03 C 1140.02 1306.77 1139.43 1307.51 1138.84 1308.25 C 1120.55 1298.17 1033.6 1216.31 1025.37 1215.79 C 1022.68 1215.62 1020.73 1216.22 1018.48 1217.56 C 1009.34 1223.02 1000.63 1231.82 992.438 1238.71 C 977.827 1251.01 962.887 1262.95 948.497 1275.5 C 937.436 1285.15 926.4 1296.08 914.73 1304.89 C 912.604 1306.49 911.425 1306.98 908.813 1306.69 C 901.72 1299.84 898.837 1181.5 892.579 1161.35 C 891.867 1159.06 890.403 1157.12 888.953 1155.24 C 888.731 1154.95 888.501 1154.67 888.275 1154.38 C 875.924 1152.75 862.172 1152.65 849.864 1151.03 C 820.577 1147.18 791.831 1145.32 762.358 1143.43 C 756.778 1143.07 743.687 1142.79 740.222 1138.79 C 741.651 1130.65 820.864 1043 831.498 1024.82 C 828.149 1010.06 750.87 928.842 738.495 906.809 C 761.863 903.77 877.377 896.978 889.735 889.493 C 890.536 889.008 891.889 887.991 892.408 887.23 C 894.894 883.589 902.361 792.43 903.473 779.559 C 904.571 766.85 904.249 752.416 907.433 740.111 C 907.514 739.799 907.606 739.489 907.692 739.178 z M 979.756 916.678 C 967.929 912.428 910.462 891.285 901.248 889.886 C 895.324 894.348 899.098 895.589 889.84 898.984 C 898.968 925.236 906.806 952.877 916.697 978.863 C 892.105 992.656 863.394 1004.36 837.946 1018.14 L 838.195 1029.02 C 860.356 1040.59 893.854 1057.07 916.995 1067.24 C 908.281 1093.56 899.154 1121.64 889.507 1147.59 C 897.326 1150.57 897.234 1151.16 900.28 1158.91 C 926.549 1149.42 953.091 1140.62 979.428 1131.22 C 984.389 1140.57 1015.14 1203.96 1019.12 1206.77 C 1022.87 1206.77 1026.18 1206.67 1029.91 1207.14 C 1040.95 1187.14 1057.4 1147.84 1068.23 1131.3 C 1086.97 1136.52 1129.29 1151.84 1148.34 1159.16 C 1149.55 1152.56 1151.4 1151.37 1155.96 1146.96 C 1155.78 1138.48 1135.31 1078.51 1131.02 1067.24 C 1140.85 1063.03 1204.79 1033.32 1208.46 1029.2 C 1208.96 1025.24 1209.34 1022.5 1210.2 1018.62 C 1184.12 1005.71 1157.4 991.798 1131.41 979.197 C 1138.08 954.437 1149.53 923.722 1158.26 899.317 C 1150.38 896.722 1149.39 898.02 1147 889.918 C 1143.63 889.326 1075.12 913.694 1068.18 916.829 C 1061.55 903.328 1038.38 853.849 1028.76 839.658 C 1028.22 838.856 1022.4 839.901 1017.93 838.904 C 1009 861.724 990.709 893.8 979.756 916.678 z M 1214.76 1141.14 C 1230.84 1139.82 1246.92 1138.4 1262.99 1136.89 C 1272.74 1135.9 1284.22 1134.01 1293.82 1133.87 C 1271.82 1104.58 1246.67 1076.86 1223.99 1048.01 C 1221.52 1044.85 1217.37 1039.81 1214.57 1036.99 C 1198.76 1043.43 1154.05 1064.69 1141.4 1073.03 C 1149.35 1097.5 1157.43 1121.92 1165.64 1146.3 C 1180.72 1144.04 1199.46 1142.35 1214.76 1141.14 z M 810.176 982.201 C 817.888 991.958 826.006 1001.39 834.51 1010.46 C 858.411 998.799 882.945 986.491 907.032 975.387 C 904.445 967.948 882.519 902.418 881.765 901.703 C 839.749 905.097 793.751 911.021 752.771 913.481 C 770.815 934.291 793.268 960.778 810.176 982.201 z M 928.477 1281.75 C 953.481 1259.09 984.721 1234.9 1010.96 1213.08 C 1007.63 1205.4 977.9 1142.98 975.209 1141.3 C 951.537 1149.99 924.728 1157.74 901.812 1167.59 C 904.102 1196.49 906.753 1225.36 909.765 1254.2 C 911.023 1266.56 911.92 1282.35 914.297 1294.16 C 918.595 1290.36 924.089 1285.22 928.477 1281.75 z M 1213.78 1010.18 C 1220.11 1003.98 1234.28 986.349 1240.14 978.693 L 1294.28 913.073 C 1256.77 912.681 1204.83 902.879 1165.95 901.645 C 1157.87 925.865 1148.09 951.829 1140.58 975.731 C 1165.03 986.017 1188.55 999.714 1213.78 1010.18 z M 984.032 889.101 C 992.431 871.25 1003.51 852.101 1011.14 834.511 C 997.883 822.407 981.296 810.243 967.249 798.241 C 953.486 786.275 939.614 774.435 925.635 762.722 C 922.861 760.388 916.081 753.957 914.038 752.404 C 913.572 765.068 911.401 777.808 910.294 790.468 C 907.675 820.416 904.164 850.751 901.595 880.677 C 927.005 888.512 951.224 898.65 975.968 906.235 C 978.506 900.454 981.195 894.741 984.032 889.101 z M 833.814 1036.55 C 810.711 1066.08 785.145 1094.13 761.827 1123.51 C 758.839 1127.27 756.151 1130.57 752.758 1134 C 760.855 1133.81 768.552 1134.54 776.568 1135.57 C 794.592 1137.87 812.693 1139.04 830.758 1140.8 C 847.712 1141.89 864.63 1143.5 881.486 1145.62 C 889.73 1121.03 898.313 1096.55 907.23 1072.19 C 882.822 1060.19 858.049 1048.93 833.814 1036.55 z M 1037.1 1212.88 C 1060.8 1234.62 1094.89 1261.28 1120.64 1283.01 C 1125.12 1286.58 1129.49 1290.28 1133.75 1294.12 C 1136.59 1258.88 1141.21 1223.62 1143.83 1188.33 C 1144.33 1181.61 1144.78 1173.64 1145.75 1167.02 C 1131.62 1161.84 1117.42 1156.83 1103.16 1152.01 C 1096.36 1149.69 1078.3 1143.82 1072.42 1140.64 C 1061.19 1164.6 1048.52 1188.65 1037.1 1212.88 z M 1036.91 834.887 C 1043.91 851.918 1056.63 875.535 1065.26 892.579 C 1067.6 897.166 1070.25 902.095 1072.39 906.733 C 1096.94 897.029 1121.84 889.689 1146.13 880.195 C 1141.34 850.355 1141.3 815.104 1137.33 784.699 C 1136.14 775.578 1135.53 761.425 1133.57 752.825 C 1127.24 759.296 1120.23 764.652 1113.33 770.468 C 1087.87 791.948 1062.02 812.994 1036.91 834.887 z"/>
<path transform="translate(0,0)" fill="rgb(137,95,158)" d="M 1023.26 866.462 C 1030.43 871.166 1054.03 926.326 1058.63 937.49 C 1078.31 929.42 1116.58 915.21 1136.96 908.987 C 1131.63 930.209 1118.03 969.613 1109.35 988.98 L 1109.66 989.082 C 1117.3 991.553 1179.52 1017.87 1182.31 1023.07 C 1179.57 1030.35 1119.44 1054.57 1109.2 1058.88 C 1116.27 1075.16 1133.24 1122.57 1137.34 1139.29 C 1114.8 1130.2 1080.11 1119.81 1059.74 1109.6 C 1053.79 1123.11 1032.14 1171.54 1024.32 1181 C 1017.39 1177.14 992.34 1118.96 989.562 1109.55 C 972.132 1117.53 928.839 1133.18 910.566 1138.05 C 913.559 1121.65 931.677 1075.95 938.075 1058.75 C 925.705 1053.97 875 1031.93 866.521 1024.51 L 866.531 1022.98 C 872.717 1016.47 927.963 992.057 938.403 989.303 C 931.085 974.818 916.13 926.838 909.878 908.921 C 934.928 916.42 964.078 928.031 989.051 937.312 C 993.864 925.104 1015.95 874.364 1023.26 866.462 z M 1014.31 1002.87 C 999.963 993.152 986.039 981.012 972.149 972.247 C 980.748 983.728 996.038 1002.39 1001.34 1014.78 C 984.107 1018.13 966.766 1020.88 949.346 1023.04 C 958.685 1025.84 990.565 1031.22 1000.72 1032.59 C 996.974 1041.92 987.138 1053.21 981.331 1062.53 C 977.868 1067.16 974.909 1071.64 971.581 1076.27 C 977.236 1071.95 983.729 1067.22 989.149 1062.73 C 994.868 1058.56 1006.7 1048.97 1012.79 1047.94 C 1016.15 1050.18 1022.17 1089.77 1023.86 1097.39 C 1026.55 1081.89 1029.88 1061.3 1033.75 1046.42 C 1046.85 1051.8 1064.3 1067.01 1075.5 1076.3 C 1068.34 1064.02 1051.05 1043.65 1046.87 1033.48 C 1064.02 1029.73 1080.42 1027.15 1097.68 1024.14 C 1086.99 1021.51 1052.56 1018.22 1048.01 1012.33 C 1048 1006.54 1070.13 978.659 1075.06 971.547 C 1065.64 979.041 1043.44 996.975 1033.78 1002.55 C 1029.98 989.668 1026.28 962.86 1024.37 949.102 C 1020.83 967.137 1018.15 984.623 1014.31 1002.87 z M 948.589 992.966 C 928.465 1001.99 908.188 1010.67 887.767 1019 C 896.744 1019.66 917.277 1019.59 926.242 1018.61 C 948.05 1016.65 966.9 1012.03 987.99 1009.17 C 979.458 994.161 939.659 938.83 925.826 931.482 C 931.768 951.435 941.028 973.388 948.589 992.966 z M 1058.29 1008.92 C 1079.75 1012.58 1101.26 1015.94 1122.82 1018.97 C 1135.06 1019.26 1149.37 1020.06 1161.36 1020.03 C 1140.44 1010.61 1119.61 1002.3 1098.73 993.09 C 1102.27 982.505 1120.5 938.78 1120.62 932.479 L 1119.9 931.787 C 1098.4 952.579 1074.87 983.705 1058.29 1008.92 z M 1059.44 1039.48 C 1071.72 1054.98 1081.97 1071.58 1093.92 1087.15 C 1101.43 1096.95 1112.7 1106.57 1121.11 1116.14 C 1122.16 1110.27 1101.31 1062.58 1097.62 1054.82 C 1117.9 1045.17 1139.74 1037.53 1160.47 1027.89 C 1154.24 1027.86 1128.38 1027.52 1123.33 1028.39 C 1107.18 1029.99 1075.8 1035.86 1059.44 1039.48 z M 988.154 1038.5 C 957.767 1034.56 918.122 1025.06 887.616 1027.29 C 908.452 1038.43 929.559 1044.27 948.937 1054.31 C 942.238 1072.71 932.892 1099.14 925.455 1116.8 C 932.105 1110.22 939.341 1102.09 945.762 1095.99 C 955.913 1084.79 965.605 1070.41 974.371 1058.03 C 978.035 1052.85 985.176 1043.5 988.154 1038.5 z M 992.93 948.837 C 977.307 941.057 947.538 930.327 931.179 924.47 C 935.892 929.412 955.555 950.385 959.844 953.478 C 976.632 965.584 992.076 976.666 1008.51 989.581 C 1014.05 965.647 1023.09 913.536 1019.61 890.465 L 1017.95 892.739 L 1014.46 901.114 C 1007.19 916.216 1000.69 934.616 992.93 948.837 z M 1039.74 989.282 C 1055.15 976.084 1081.35 959.593 1093.72 947.212 C 1097.4 943.562 1111.39 930.402 1113.53 926.681 C 1110.63 925.655 1065.62 943.741 1060.19 946.337 C 1058.26 947.26 1056.34 948.231 1054.45 949.248 C 1050.55 940.692 1031.64 893.455 1027.95 889.565 C 1027.84 912.947 1027.57 932.666 1033.01 955.515 C 1035.62 966.436 1036.65 978.402 1039.74 989.282 z M 930.753 1123.23 C 946.132 1117.51 971.4 1109 985.628 1102.26 C 988.765 1100.72 989.589 1100.01 993.109 1100.23 C 996.959 1103.87 1016.49 1152.13 1019.96 1160.38 C 1020.1 1146.79 1020.79 1124.62 1018.07 1111.76 C 1016.48 1104.19 1010.23 1062.29 1007.87 1059.08 C 995.122 1069.86 979.54 1079.36 966.229 1089.61 C 953.726 1099.24 941.463 1111.51 930.753 1123.23 z M 1115.88 1122.33 C 1090.15 1094.71 1069.54 1080.71 1039.56 1058.48 C 1035.84 1077.75 1030.9 1100.24 1028.4 1119.44 C 1027.24 1128.42 1027.83 1150.74 1027.9 1160.76 C 1031.79 1149.55 1048.87 1109.92 1055.07 1098.79 L 1064.59 1102.83 C 1072.41 1106.18 1108.52 1120.54 1115.88 1122.33 z"/>
<path transform="translate(0,0)" fill="rgb(252,241,253)" fill-opacity="0.00784314" d="M 1119.9 931.787 L 1120.62 932.479 C 1120.5 938.78 1102.27 982.505 1098.73 993.09 C 1119.61 1002.3 1140.44 1010.61 1161.36 1020.03 C 1149.37 1020.06 1135.06 1019.26 1122.82 1018.97 C 1101.26 1015.94 1079.75 1012.58 1058.29 1008.92 C 1074.87 983.705 1098.4 952.579 1119.9 931.787 z"/>
<path transform="translate(0,0)" fill="rgb(252,241,253)" fill-opacity="0.0235294" d="M 981.331 1062.53 C 986.379 1061.15 984.275 1061.01 989.149 1062.73 C 983.729 1067.22 977.236 1071.95 971.581 1076.27 C 974.909 1071.64 977.868 1067.16 981.331 1062.53 z"/>
<path transform="translate(0,0)" fill="url(#Gradient1)" d="M 1014.46 901.114 L 1017.95 892.739 C 1018.73 896.011 1019.64 898.142 1018.68 901.312 C 1016.21 902.383 1017.55 902.164 1014.46 901.114 z"/>
<path transform="translate(0,0)" fill="rgb(137,95,158)" d="M 1212.35 1056.82 C 1218.53 1059.3 1257.67 1109.53 1264.94 1117.59 C 1266.7 1119.54 1266.91 1121.06 1266.42 1123.36 C 1257.78 1126.02 1224.17 1127.57 1212.6 1128.93 C 1202.81 1129.26 1190.52 1130.47 1180.58 1131.2 C 1172.37 1113.98 1164.48 1096.61 1156.91 1079.1 C 1170.45 1072.58 1197.74 1062.64 1212.35 1056.82 z M 1167.67 1083.87 C 1173.59 1096.84 1179.55 1110.34 1185.86 1123.09 C 1193.69 1122.05 1201.33 1121.51 1209.19 1120.91 C 1224.48 1119.2 1239.68 1118.63 1254.22 1117 C 1247.83 1110.56 1213.66 1067.23 1211.19 1066.04 C 1197.63 1072.48 1181.76 1078.21 1167.67 1083.87 z"/>
<path transform="translate(0,0)" fill="rgb(137,95,158)" d="M 859.317 916.42 C 860.595 916.289 863.584 915.924 864.486 916.559 C 871.98 921.83 887.798 961.803 890.009 969.128 C 871.53 975.612 852.49 983.386 834.203 990.592 C 829.84 986.606 826.555 982.432 822.765 977.919 C 818.229 969.467 781.244 931.622 780.245 923.535 C 789.194 920.675 846.948 917.433 859.317 916.42 z M 792.885 930.062 C 804.771 942.851 814.886 955.099 825.772 968.78 L 836.105 980.754 C 850.525 975.078 865.556 968.908 880.116 963.788 C 877.147 957.664 863.695 926.254 860.435 924.098 L 857.909 924.422 C 839.251 926.27 810.054 927.452 792.885 930.062 z"/>
<path transform="translate(0,0)" fill="rgb(137,95,158)" d="M 1182.09 916.124 C 1211.6 917.461 1239.56 920.974 1268.82 923.342 C 1263.78 932.936 1236.3 964.009 1227.63 974.673 C 1223.07 979.723 1218.58 985.112 1214.15 990.298 C 1194.43 983.109 1176.36 976.41 1157.24 967.788 C 1161.3 958.322 1176.53 921.436 1182.09 916.124 z M 1168.21 963.172 C 1181.2 969.094 1198.2 975.152 1211.77 980.38 L 1223.5 966.87 C 1233.44 954.455 1243.59 942.214 1253.96 930.152 C 1231.12 928.421 1208.29 926.503 1185.48 924.399 C 1180.54 937.533 1174.15 950.414 1168.21 963.172 z"/>
<path transform="translate(0,0)" fill="rgb(137,95,158)" d="M 1122.34 778.708 L 1124.28 780.229 C 1125.79 789.304 1126.35 802.235 1127.13 811.776 L 1131.76 865.587 C 1116.8 873.513 1094.84 883.722 1079.4 890.548 L 1075.14 880.372 C 1069.23 867.867 1062.03 847.475 1057.18 834.213 C 1060.4 830.797 1065.26 826.911 1068.93 823.846 C 1086.76 808.967 1104.11 793.045 1122.34 778.708 z M 1066.87 836.308 C 1071.06 848.334 1075.92 860.363 1080.55 872.242 C 1082.07 875.767 1082.01 877.014 1084.76 879.166 C 1098.04 874.173 1110.28 866.041 1123.12 860.741 C 1122.67 852.857 1119.1 797.012 1116.91 794.007 C 1101.17 808.896 1082.27 821.862 1066.87 836.308 z"/>
<path transform="translate(0,0)" fill="rgb(137,95,158)" d="M 833.557 1057.65 C 841.921 1057.93 881.577 1074.75 891.014 1079 C 887.503 1088.12 871.389 1122.82 866.658 1130.99 C 859.513 1129.89 846.867 1129.6 839.154 1129.09 C 827.283 1129.01 791.108 1125.11 779.111 1123.49 C 783.161 1116.51 827.06 1064.01 833.557 1057.65 z M 794.004 1117.52 C 806.256 1118.07 827.722 1118.7 839.679 1120.82 C 846.656 1121.44 854.054 1121.96 860.974 1122.76 C 867.203 1110.29 874.869 1095.57 880.36 1082.94 C 869.689 1079.39 846.35 1071.13 836.849 1065.99 C 822.244 1082.9 807.96 1100.07 794.004 1117.52 z"/>
<path transform="translate(0,0)" fill="rgb(137,95,158)" d="M 966.931 1156.88 C 971.005 1159.72 987.745 1204.73 990.98 1212.94 C 977.008 1227.41 949.265 1245.99 933.623 1261.82 C 931.412 1264.36 927.44 1266.8 924.579 1268.78 C 921.333 1252.64 920.238 1232.58 918.839 1216.42 C 916.623 1190.83 909.553 1182.56 936.097 1172.02 C 945.263 1168.38 957.482 1160.98 966.931 1156.88 z M 924.573 1187.14 C 925.931 1209.65 928.88 1231.87 930.227 1254.14 L 938.365 1246.44 C 952.285 1234.5 966.533 1222.95 981.092 1211.8 C 978.253 1203.92 967.326 1173.92 963.572 1167.02 C 950.774 1174.11 937.769 1180.82 924.573 1187.14 z"/>
<path transform="translate(0,0)" fill="rgb(137,95,158)" d="M 924.828 779.748 C 933.345 784.504 985.348 827.544 989.165 834.752 C 989.193 845.001 977.5 869.641 972.973 880.551 C 971.715 884.169 970.705 889.054 966.829 890.23 C 958.874 887.761 922.745 868.935 915.872 864.288 C 916.683 850.66 921.849 791.89 924.828 779.748 z M 923.855 860.539 C 935.278 865.648 954.168 875.839 963.995 879.563 C 964.686 877.769 966.545 873.259 966.979 871.628 C 971.757 860.095 976.467 848.181 981.936 836.983 C 970.657 828.074 959.578 818.914 948.707 809.511 C 945.675 806.891 931.867 794.475 930.003 793.346 C 929.789 805.645 926.044 848.237 923.855 860.539 z"/>
<path transform="translate(0,0)" fill="rgb(137,95,158)" d="M 1079.9 1157.4 C 1087.98 1159.42 1123.57 1177.66 1131.38 1182.48 C 1131 1207.78 1126.3 1242.79 1124.3 1269.03 L 1115.86 1262.84 C 1105.27 1255.86 1093.09 1244.29 1083.53 1235.97 C 1074.69 1228.28 1065.51 1220.64 1056.84 1212.8 C 1059.41 1204.05 1075.36 1165.15 1079.9 1157.4 z M 1065.9 1211.48 C 1081.68 1223.62 1097.1 1236.22 1112.14 1249.28 L 1117.6 1253.85 C 1119.76 1231.64 1121.67 1209.42 1123.35 1187.17 C 1111.68 1181.53 1095.19 1174.03 1084.29 1167.39 C 1078.94 1180.47 1071.91 1199.19 1065.9 1211.48 z"/>
<path transform="translate(0,0)" fill="rgb(252,241,253)" fill-opacity="0.0117647" d="M 1451.67 1440.15 L 1454.07 1449.65 C 1452.52 1447.99 1448.23 1443.59 1447.12 1441.98 L 1451.67 1440.15 z"/>
<path transform="translate(0,0)" fill="rgb(252,241,253)" fill-opacity="0.0117647" d="M 1015.29 424.888 C 1016.75 422.255 1017.52 419.549 1019.67 418.635 L 1020.16 421.946 L 1018.71 426.301 C 1016.3 425.539 1017.44 426.018 1015.29 424.888 z"/>
</svg>